<mxfile host="app.diagrams.net" modified="2023-07-20T20:20:41.027Z" agent="Mozilla/5.0 (Macintosh; Intel Mac OS X 10_15_7) AppleWebKit/537.36 (KHTML, like Gecko) Chrome/114.0.0.0 Safari/537.36" version="21.6.5" etag="wBkbI5VQ1lr59e-KDoIk" type="github">
  <diagram name="Page-1" id="_TOAWZyJrEOde--mu6-Q">
    <mxGraphModel>
      <root>
        <mxCell id="0" />
        <mxCell id="1" parent="0" />
      </root>
    </mxGraphModel>
  </diagram>
</mxfile>
